REM DATE 2011
REM DISCID FF30FB07
REM COMMENT "ExactAudioCopy v1.0b3"
PERFORMER "大萌神赛高233"
TITLE "No zuo no die why you try."
FILE "TRACK01.wav" WAVE
  TRACK 01 AUDIO
    TITLE "Peace War Found"
    PERFORMER "LOL"
    INDEX 01 00:00:00
    INDEX 02 03:56:24
FILE "TRACK02.wav" WAVE
  TRACK 02 AUDIO
    TITLE "GOGOGOGO"
    INDEX 01 00:00:00
    INDEX 02 04:57:68
FILE "TRACK03.wav" WAVE
  TRACK 03 AUDIO
    TITLE "麻麻请再打我一次"
    INDEX 01 00:00:00
    INDEX 02 04:38:13
    REM GENRE Pop
FILE "TRACK04.wav" WAVE
  TRACK 04 AUDIO
    TITLE "duang~"
    INDEX 01 00:00:00
    INDEX 02 03:38:54
FILE "TRACK05.wav" WAVE
  TRACK 05 AUDIO
    TITLE "Hmmmm..."
    INDEX 01 00:00:00
    INDEX 02 05:00:01

